<?xml version="1.0" encoding="UTF-8"?>
<!DOCTYPE svg PUBLIC "-//W3C//DTD SVG 1.1//EN" "http://www.w3.org/Graphics/SVG/1.1/DTD/svg11.dtd">
<!-- Creator: CorelDRAW -->
<svg xmlns="http://www.w3.org/2000/svg" xml:space="preserve" width="247.565mm" height="183.049mm" version="1.1" style="shape-rendering:geometricPrecision; text-rendering:geometricPrecision; image-rendering:optimizeQuality; fill-rule:evenodd; clip-rule:evenodd"
viewBox="0 0 24756.52 18304.92"
 xmlns:xlink="http://www.w3.org/1999/xlink"
 xmlns:xodm="http://www.corel.com/coreldraw/odm/2003">
 <defs>
  <style type="text/css">
   <![CDATA[
    .str0 {stroke:#92486D;stroke-width:84.67;stroke-miterlimit:22.9256}
    .fil1 {fill:none}
    .fil3 {fill:url(#id2)}
    .fil0 {fill:url(#id3)}
    .fil2 {fill:url(#id4)}
   ]]>
  </style>
   <mask id="id0">
  <linearGradient id="id1" gradientUnits="userSpaceOnUse" x1="19818.11" y1="10766.26" x2="19646.04" y2="5517.96">
   <stop offset="0" style="stop-opacity:1; stop-color:white"/>
   <stop offset="1" style="stop-opacity:0; stop-color:white"/>
  </linearGradient>
    <rect style="fill:url(#id1)" x="11446.95" y="5300.12" width="7924.79" height="7924.79"/>
   </mask>
  <linearGradient id="id2" gradientUnits="userSpaceOnUse" x1="17338.07" y1="8738.23" x2="17802.67" y2="8274.27">
   <stop offset="0" style="stop-opacity:1; stop-color:#92486D"/>
   <stop offset="0.721569" style="stop-opacity:1; stop-color:#C78168"/>
   <stop offset="1" style="stop-opacity:1; stop-color:#FCBA63"/>
  </linearGradient>
  <linearGradient id="id3" gradientUnits="objectBoundingBox" x1="15.217%" y1="85.9185%" x2="85.9669%" y2="15.2663%">
   <stop offset="0" style="stop-opacity:1; stop-color:#C770D8"/>
   <stop offset="1" style="stop-opacity:1; stop-color:#FCBA63"/>
  </linearGradient>
  <linearGradient id="id4" gradientUnits="userSpaceOnUse" xlink:href="#id3" x1="12681.9" y1="9925.82" x2="9468.18" y2="6716.54">
  </linearGradient>
 </defs>
 <g id="Camada_x0020_1">
  <metadata id="CorelCorpID_0Corel-Layer"/>
  <path class="fil0" d="M7912.04 12907.65c2665.45,2581.19 6918.69,2512.88 9499.89,-152.57 2581.19,-2665.45 2512.88,-6918.69 -152.57,-9499.89 -2665.45,-2581.19 -6918.69,-2512.88 -9499.89,152.57 -2581.19,2665.45 -2512.88,6918.69 152.57,9499.89z"/>
  <path class="fil1 str0" style="mask:url(#id0)" d="M12682.31 12078.57c1555.27,1506.1 4036.99,1466.24 5543.09,-89.02 1506.1,-1555.27 1466.24,-4036.99 -89.02,-5543.09 -1555.27,-1506.1 -4036.99,-1466.24 -5543.09,89.02 -1506.1,1555.27 -1466.24,4036.99 89.02,5543.09z"/>
  <path class="fil2" d="M12681.9 9925.82c-901.08,872.6 -2338.93,849.51 -3211.52,-51.57 -872.6,-901.08 -849.51,-2338.93 51.57,-3211.52 901.08,-872.6 2338.93,-849.51 3211.52,51.57 872.6,901.08 849.51,2338.93 -51.57,3211.52z"/>
  <path class="fil0" d="M11953.43 12600.53c307.09,297.38 797.1,289.51 1094.47,-17.57 297.38,-307.09 289.51,-797.1 -17.57,-1094.47 -307.09,-297.38 -797.1,-289.51 -1094.47,17.57 -297.38,307.09 -289.51,797.1 17.57,1094.47z"/>
  <path class="fil3" d="M17338.07 8738.24c130.27,126.15 338.14,122.81 464.29,-7.46 126.15,-130.27 122.81,-338.14 -7.46,-464.29 -130.27,-126.15 -338.14,-122.81 -464.29,7.46 -126.15,130.27 -122.81,338.14 7.46,464.29z"/>
 </g>
</svg>
